<svg width="23" height="18" viewBox="0 0 23 18" fill="none" xmlns="http://www.w3.org/2000/svg">
<g clip-path="url(#clip0_40_102)">
<rect width="22.4414" height="17.7051" transform="translate(0.419434)" fill="black"/>
<path d="M0.419434 13.8672C0.419434 14.1081 0.502441 14.3034 0.668457 14.4531C0.834473 14.6028 1.05094 14.6777 1.31787 14.6777H3.54443C4.35173 14.6777 5.02718 14.5442 5.5708 14.2773C6.11442 14.0104 6.68246 13.5352 7.2749 12.8516L13.1928 5.94727C13.4728 5.62174 13.7447 5.36133 14.0083 5.16602C14.272 4.97071 14.5487 4.8291 14.8383 4.74121C15.1281 4.65332 15.452 4.60938 15.81 4.60938H17.8022V6.81641C17.8022 7.01172 17.8559 7.16309 17.9633 7.27051C18.0708 7.37793 18.2254 7.43164 18.4272 7.43164C18.5184 7.43164 18.6079 7.41536 18.6958 7.38281C18.7837 7.35026 18.8634 7.30468 18.935 7.24609L22.6264 4.18945C22.7827 4.05924 22.8608 3.90625 22.8608 3.73047C22.8608 3.55469 22.7827 3.39844 22.6264 3.26172L18.935 0.195312C18.8634 0.136719 18.7837 0.0927736 18.6958 0.0634767C18.6079 0.0341797 18.5184 0.0195312 18.4272 0.0195312C18.2254 0.0195312 18.0708 0.0716145 17.9633 0.175781C17.8559 0.279948 17.8022 0.429687 17.8022 0.625V2.97852H15.7612C14.9474 2.97852 14.2671 3.11198 13.7202 3.37891C13.1734 3.64584 12.607 4.1211 12.021 4.80469L6.11279 11.709C5.68961 12.2038 5.28759 12.5521 4.90673 12.7539C4.52588 12.9557 4.08806 13.0566 3.59326 13.0566H1.31787C1.05094 13.0566 0.834473 13.1315 0.668457 13.2812C0.502441 13.431 0.419434 13.6263 0.419434 13.8672ZM0.419434 3.79883C0.419434 4.03972 0.502441 4.23503 0.668457 4.38477C0.834473 4.53451 1.05094 4.60938 1.31787 4.60938H3.59326C4.09456 4.60938 4.53402 4.71029 4.91162 4.91211C5.28922 5.11393 5.68961 5.46224 6.11279 5.95703L12.021 12.8613C12.607 13.5449 13.1734 14.0185 13.7202 14.2822C14.2671 14.5459 14.9474 14.6777 15.7612 14.6777H17.8022V17.0996C17.8022 17.2949 17.8559 17.4447 17.9633 17.5488C18.0708 17.653 18.2254 17.7051 18.4272 17.7051C18.5184 17.7051 18.6079 17.6904 18.6958 17.6611C18.7837 17.6318 18.8634 17.5879 18.935 17.5293L22.6264 14.4727C22.7827 14.3424 22.8608 14.1894 22.8608 14.0137C22.8608 13.8379 22.7827 13.6816 22.6264 13.5449L18.935 10.4785C18.8634 10.4199 18.7837 10.3743 18.6958 10.3418C18.6079 10.3093 18.5184 10.293 18.4272 10.293C18.2254 10.293 18.0708 10.3467 17.9633 10.4541C17.8559 10.5615 17.8022 10.7129 17.8022 10.9082V13.0566H15.81C15.2762 13.0566 14.8123 12.9557 14.4184 12.7539C14.0246 12.5521 13.616 12.2038 13.1928 11.709L7.2749 4.80469C6.68246 4.1211 6.11442 3.64746 5.5708 3.38379C5.02718 3.12012 4.35173 2.98828 3.54443 2.98828H1.31787C1.05094 2.98828 0.834473 3.06152 0.668457 3.20801C0.502441 3.35449 0.419434 3.55143 0.419434 3.79883Z" fill="white"/>
</g>
<defs>
<clipPath id="clip0_40_102">
<rect width="22.4414" height="17.7051" fill="white" transform="translate(0.419434)"/>
</clipPath>
</defs>
</svg>
